<?xml version="1.0" standalone="no"?>
<!DOCTYPE svg PUBLIC "-//W3C//DTD SVG 20010904//EN"
 "http://www.w3.org/TR/2001/REC-SVG-20010904/DTD/svg10.dtd">
<svg version="1.0" xmlns="http://www.w3.org/2000/svg"
 width="90.000000pt" height="90.000000pt" viewBox="0 0 90.000000 90.000000"
 preserveAspectRatio="xMidYMid meet">

<g transform="translate(0.000000,90.000000) scale(0.100000,-0.100000)"
fill="#000000" stroke="none">
<path d="M290 820 c-19 -19 -20 -33 -20 -280 0 -247 1 -261 20 -280 19 -19 33
-20 235 -20 202 0 216 1 235 20 19 19 20 33 20 208 l0 187 -93 93 -92 92 -143
0 c-129 0 -144 -2 -162 -20z m369 -188 c-89 -4 -89 -4 -89 80 l0 72 75 -74 76
-75 -62 -3z"/>
<path d="M140 670 c-19 -19 -20 -33 -20 -280 0 -247 1 -261 20 -280 19 -19 33
-20 235 -20 202 0 216 1 235 20 11 11 20 31 20 44 l0 25 -175 3 -175 3 -32 33
-33 32 -3 220 -3 220 -25 0 c-13 0 -33 -9 -44 -20z"/>
</g>
</svg>
